<?xml version="1.0" encoding="utf-8"?>
<!-- Generator: Adobe Illustrator 16.0.0, SVG Export Plug-In . SVG Version: 6.00 Build 0)  -->
<!DOCTYPE svg PUBLIC "-//W3C//DTD SVG 1.1//EN" "http://www.w3.org/Graphics/SVG/1.1/DTD/svg11.dtd">
<svg version="1.1" xmlns="http://www.w3.org/2000/svg" xmlns:xlink="http://www.w3.org/1999/xlink" x="0px" y="0px" width="1325px"
	 height="700px" viewBox="0 0 1325 700" enable-background="new 0 0 1325 700" xml:space="preserve">
<g id="Layer_1">
	<g>
		<defs>
			<rect id="SVGID_1_" x="102.859" y="84.339" width="504.67" height="504.442"/>
		</defs>
		<clipPath id="SVGID_2_">
			<use xlink:href="#SVGID_1_"  overflow="visible"/>
		</clipPath>
		<g clip-path="url(#SVGID_2_)">
			<defs>
				<rect id="SVGID_3_" x="102.859" y="83.841" width="505" height="505"/>
			</defs>
			<clipPath id="SVGID_4_">
				<use xlink:href="#SVGID_3_"  overflow="visible"/>
			</clipPath>
			<rect x="102.859" y="84.339" clip-path="url(#SVGID_4_)" fill="#FBDE34" width="504.67" height="504.442"/>
		</g>
	</g>
	<g>
		<defs>
			<rect id="SVGID_5_" x="102.859" y="83.841" width="505" height="505"/>
		</defs>
		<clipPath id="SVGID_6_">
			<use xlink:href="#SVGID_5_"  overflow="visible"/>
		</clipPath>
	</g>
</g>
<g id="Layer_2">
	<g>
		<path fill="#343433" d="M236.746,505.802l38.537-23.324c7.437,13.184,14.198,24.339,30.424,24.339
			c15.55,0,25.353-6.085,25.353-29.748V316.16h47.327v161.584c0,49.017-28.734,71.327-70.651,71.327
			C269.875,549.071,247.901,529.465,236.746,505.802z"/>
		<path fill="#343433" d="M404.172,500.731l38.537-22.311c10.141,16.563,23.324,28.733,46.649,28.733
			c19.606,0,32.114-9.804,32.114-23.325c0-16.226-12.846-21.973-34.48-31.438l-11.831-5.071
			c-34.143-14.535-56.792-32.79-56.792-71.327c0-35.494,27.044-62.538,69.299-62.538c30.086,0,51.721,10.479,67.271,37.861
			l-36.847,23.663c-8.113-14.536-16.902-20.282-30.425-20.282c-13.859,0-22.648,8.789-22.648,20.282
			c0,14.197,8.789,19.944,29.071,28.733l11.832,5.071c40.228,17.24,62.876,34.818,62.876,74.369
			c0,42.594-33.467,65.918-78.426,65.918C446.427,549.071,418.031,528.113,404.172,500.731z"/>
		<path fill="#343433" d="M653.976,315.962h45.636v108.71c8.789-16.564,24.678-25.691,44.622-25.691
			c31.438,0,54.087,22.987,54.087,63.891v83.158h-45.636v-80.116c0-16.227-7.775-25.354-24.001-25.354
			c-18.255,0-29.072,10.142-29.072,28.396v77.074h-45.636V315.962z"/>
		<path fill="#343433" d="M833.474,491.942v-52.059h-21.297v-37.861h21.297v-75.045h45.298v75.045h36.847v37.861h-36.847v53.411
			c0,14.535,4.732,17.578,11.831,17.578c7.438,0,12.846-4.057,15.888-6.085l17.24,31.776c-7.099,5.746-19.268,13.184-40.227,13.184
			C854.432,549.748,833.474,535.212,833.474,491.942z"/>
		<path fill="#343433" d="M956.685,491.942v-52.059h-21.297v-37.861h21.297v-75.045h45.298v75.045h36.847v37.861h-36.847v53.411
			c0,14.535,4.732,17.578,11.831,17.578c7.438,0,12.846-4.057,15.888-6.085l17.24,31.776c-7.099,5.746-19.268,13.184-40.227,13.184
			C977.643,549.748,956.685,535.212,956.685,491.942z"/>
		<path fill="#343433" d="M1069.518,402.022h45.636l-1.014,22.312c8.789-15.55,24.001-25.354,46.312-25.354
			c34.818,0,64.229,30.424,64.229,74.708c0,44.283-30.086,75.383-65.242,75.383c-21.973,0-36.847-9.127-44.284-22.311v90.934
			h-45.636V402.022z M1177.691,473.688c0-21.297-12.169-34.48-31.438-34.48c-19.606,0-32.452,13.184-32.452,34.48
			c0,22.648,12.846,35.494,32.452,35.494C1165.522,509.183,1177.691,496.337,1177.691,473.688z"/>
	</g>
</g>
</svg>
