<?xml version="1.0" encoding="utf-8"?>
<!-- Generator: Adobe Illustrator 16.0.0, SVG Export Plug-In . SVG Version: 6.00 Build 0)  -->
<!DOCTYPE svg PUBLIC "-//W3C//DTD SVG 1.1//EN" "http://www.w3.org/Graphics/SVG/1.1/DTD/svg11.dtd">
<svg version="1.1" id="Layer_1" xmlns="http://www.w3.org/2000/svg" xmlns:xlink="http://www.w3.org/1999/xlink" x="0px" y="0px"
	 width="1265px" height="677px" viewBox="0 0 1265 677" enable-background="new 0 0 1265 677" xml:space="preserve">
<g>
	<g>
		<defs>
			<rect id="SVGID_1_" x="71.59" y="72.071" width="504.67" height="504.442"/>
		</defs>
		<clipPath id="SVGID_2_">
			<use xlink:href="#SVGID_1_"  overflow="visible"/>
		</clipPath>
		<g clip-path="url(#SVGID_2_)">
			<defs>
				<rect id="SVGID_3_" x="71.59" y="71.573" width="505" height="505"/>
			</defs>
			<clipPath id="SVGID_4_">
				<use xlink:href="#SVGID_3_"  overflow="visible"/>
			</clipPath>
			<rect x="71.59" y="72.071" clip-path="url(#SVGID_4_)" fill="#FBDE34" width="504.67" height="504.442"/>
		</g>
	</g>
	<g>
		<defs>
			<rect id="SVGID_5_" x="71.59" y="71.573" width="505" height="505"/>
		</defs>
		<clipPath id="SVGID_6_">
			<use xlink:href="#SVGID_5_"  overflow="visible"/>
		</clipPath>
	</g>
	<g>
		<defs>
			<rect id="SVGID_7_" x="71.59" y="72.071" width="504.67" height="504.442"/>
		</defs>
		<clipPath id="SVGID_8_">
			<use xlink:href="#SVGID_7_"  overflow="visible"/>
		</clipPath>
		<g clip-path="url(#SVGID_8_)">
			<defs>
				<rect id="SVGID_9_" x="71.59" y="71.573" width="505" height="505"/>
			</defs>
			<clipPath id="SVGID_10_">
				<use xlink:href="#SVGID_9_"  overflow="visible"/>
			</clipPath>
		</g>
	</g>
	<g>
		<defs>
			<rect id="SVGID_11_" x="71.59" y="72.071" width="505" height="505"/>
		</defs>
		<clipPath id="SVGID_12_">
			<use xlink:href="#SVGID_11_"  overflow="visible"/>
		</clipPath>
		<path clip-path="url(#SVGID_12_)" fill="#343433" d="M204.115,493.748l38.57-23.342c7.44,13.193,14.209,24.355,30.445,24.355
			c15.562,0,25.375-6.089,25.375-29.769v-161.04h47.363v161.714c0,49.057-28.756,71.386-70.709,71.386
			C237.271,537.053,215.279,517.43,204.115,493.748"/>
		<path clip-path="url(#SVGID_12_)" fill="#343433" d="M371.585,488.673l38.564-22.328c10.152,16.578,23.347,28.758,46.689,28.758
			c19.625,0,32.139-9.812,32.139-23.346c0-16.238-12.854-21.99-34.508-31.461l-11.838-5.077
			c-34.172-14.546-56.84-32.814-56.84-71.383c0-35.522,27.064-62.59,69.355-62.59c30.11,0,51.763,10.489,67.323,37.894
			l-36.877,23.681c-8.12-14.546-16.914-20.297-30.446-20.297c-13.87,0-22.668,8.796-22.668,20.297
			c0,14.21,8.798,19.962,29.095,28.759l11.84,5.074c40.26,17.255,62.928,34.846,62.928,74.427c0,42.63-33.493,65.973-78.488,65.973
			C413.873,537.053,385.454,516.078,371.585,488.673"/>
	</g>
	<g>
		<path fill="#F6F7F5" d="M622.706,303.694h45.636v108.71c8.789-16.564,24.678-25.691,44.622-25.691
			c31.438,0,54.087,22.987,54.087,63.891v83.158h-45.636v-80.116c0-16.227-7.775-25.354-24.001-25.354
			c-18.255,0-29.072,10.142-29.072,28.396v77.074h-45.636V303.694z"/>
		<path fill="#F6F7F5" d="M802.204,479.675v-52.059h-21.297v-37.861h21.297V314.71h45.298v75.045h36.847v37.861h-36.847v53.411
			c0,14.535,4.732,17.578,11.831,17.578c7.438,0,12.846-4.057,15.888-6.085l17.24,31.776c-7.099,5.746-19.268,13.184-40.227,13.184
			C823.162,537.48,802.204,522.944,802.204,479.675z"/>
		<path fill="#F6F7F5" d="M925.415,479.675v-52.059h-21.297v-37.861h21.297V314.71h45.298v75.045h36.847v37.861h-36.847v53.411
			c0,14.535,4.732,17.578,11.831,17.578c7.438,0,12.846-4.057,15.888-6.085l17.24,31.776c-7.099,5.746-19.268,13.184-40.227,13.184
			C946.373,537.48,925.415,522.944,925.415,479.675z"/>
		<path fill="#F6F7F5" d="M1038.248,389.755h45.636l-1.014,22.312c8.789-15.55,24.001-25.354,46.312-25.354
			c34.818,0,64.229,30.424,64.229,74.708c0,44.283-30.086,75.383-65.242,75.383c-21.973,0-36.847-9.127-44.284-22.311v90.934
			h-45.636V389.755z M1146.422,461.421c0-21.297-12.169-34.48-31.438-34.48c-19.606,0-32.452,13.184-32.452,34.48
			c0,22.648,12.846,35.494,32.452,35.494C1134.253,496.915,1146.422,484.069,1146.422,461.421z"/>
	</g>
</g>
</svg>
